<svg version="1.1" xmlns="http://www.w3.org/2000/svg" xmlns:xlink="http://www.w3.org/1999/xlink" width="17.26033" height="12.11786" viewBox="0,0,17.26033,12.11786"><g transform="translate(-230.25489,-173.94107)"><g data-paper-data="{&quot;isPaintingLayer&quot;:true}" fill="#5865f2" fill-rule="nonzero" stroke="none" stroke-width="1" stroke-linecap="butt" stroke-linejoin="miter" stroke-miterlimit="10" stroke-dasharray="" stroke-dashoffset="0" style="mix-blend-mode: normal"><path d="M243.4825,184.33547c-1.15036,0.86014 -2.26624,1.38198 -3.36332,1.72346c-0.27165,-0.37243 -0.51196,-0.76942 -0.71988,-1.1856c0.39599,-0.15049 0.7763,-0.33617 1.13572,-0.55279c-0.09403,-0.07044 -0.18701,-0.14408 -0.27792,-0.21985c-2.15968,1.02235 -4.53459,1.02235 -6.72038,0c-0.08985,0.07578 -0.18285,0.14941 -0.27792,0.21985c0.35836,0.21556 0.73764,0.40126 1.13364,0.55172c-0.20792,0.41725 -0.44928,0.81317 -0.71988,1.18562c-1.09603,-0.34149 -2.21087,-0.86334 -3.36124,-1.72241c-0.23509,-2.51956 0.23509,-5.07541 1.96952,-7.69635c0.8599,-0.40338 1.7804,-0.69685 2.74269,-0.86334c0.11911,0.21344 0.26016,0.50052 0.35523,0.72888c1.00305,-0.15367 2.01548,-0.15367 3.03733,0c0.0951,-0.22837 0.23302,-0.51545 0.35107,-0.72888c0.96125,0.16649 1.8807,0.45889 2.7406,0.86121c1.50352,2.2453 2.25058,4.77768 1.97474,7.69849zM235.88446,181.42747c0.01149,-0.74702 -0.5266,-1.35955 -1.19426,-1.35955c-0.66765,0 -1.19426,0.61361 -1.19426,1.35955c0,0.74595 0.5381,1.35851 1.19426,1.35851c0.66766,0 1.19529,-0.61256 1.19426,-1.35851zM240.29785,181.42747c0.01149,-0.74702 -0.5266,-1.35955 -1.19425,-1.35955c-0.66766,0 -1.19426,0.61361 -1.19426,1.35955c0,0.74595 0.5381,1.35851 1.19426,1.35851c0.66765,0 1.19425,-0.61256 1.19425,-1.35851z"/><g><path d="M244.33742,173.94107h1.19231v5.47578h-1.19231z"/><path d="M242.35192,177.27512v-1.19231h5.16331v1.19231z"/></g></g></g></svg>